<svg xmlns="http://www.w3.org/2000/svg" xmlns:xlink="http://www.w3.org/1999/xlink" id="Layer_1" x="0px" y="0px" width="400.333px" height="62.5px" viewBox="0 0 400.333 62.5" xml:space="preserve"><path fill="#FFFFFF" d="M38.863,20.171c-1.12-1.035-2.356-1.948-3.705-2.732c-3.195-1.866-6.688-2.813-10.384-2.813 c-5.701,0-10.645,2.054-14.695,6.104C6.045,24.763,4,29.699,4,35.4c0,5.7,2.044,10.644,6.082,14.698 c4.049,4.032,8.993,6.076,14.692,6.076c5.701,0,10.637-2.045,14.671-6.079c4.05-4.049,6.104-8.993,6.104-14.695V6.203h-6.686V20.171 z M34.737,45.363c-2.776,2.776-6.036,4.126-9.963,4.126c-3.928,0-7.187-1.35-9.963-4.126c-2.776-2.775-4.126-6.034-4.126-9.963 c0-3.928,1.35-7.187,4.126-9.963c2.777-2.776,6.036-4.126,9.963-4.126c3.927,0,7.186,1.35,9.962,4.126 c2.777,2.777,4.126,6.036,4.126,9.963C38.863,39.328,37.514,42.587,34.737,45.363z"/><path fill="#FFFFFF" d="M78.443,38.208c0,3.186-1.101,5.828-3.37,8.083c-2.25,2.251-4.886,3.345-8.058,3.345 c-3.189,0-5.833-1.094-8.083-3.345c-2.25-2.251-3.345-4.895-3.345-8.083V15.944h-6.686v22.264c0,4.971,1.781,9.281,5.301,12.819 c3.53,3.513,7.841,5.294,12.812,5.294c4.954,0,9.257-1.781,12.795-5.302c3.513-3.53,5.294-7.841,5.294-12.812V15.944h-6.661V38.208z "/><polygon fill="#FFFFFF" points="123.665,15.993 114.196,15.993 95.144,34.857 95.144,6.179 88.458,6.179 88.458,54.759  95.144,54.759 95.144,44.241 99.432,39.986 113.653,54.808 123.024,54.808 104.182,35.286 "/><path fill="#FFFFFF" d="M140.78,14.626c-5.701,0-10.645,2.054-14.695,6.104c-4.034,4.033-6.079,8.97-6.079,14.671 c0,5.7,2.044,10.644,6.082,14.698c4.049,4.032,8.993,6.076,14.692,6.076c3.692,0,7.183-0.937,10.388-2.79 c1.347-0.791,2.583-1.709,3.701-2.747v4.194h6.686V35.4c0-5.703-2.055-10.64-6.101-14.668 C151.419,16.681,146.482,14.626,140.78,14.626z M150.743,45.363c-2.777,2.776-6.036,4.126-9.963,4.126 c-3.928,0-7.187-1.35-9.963-4.126c-2.776-2.775-4.126-6.034-4.126-9.963c0-3.928,1.35-7.187,4.126-9.963 c2.777-2.776,6.036-4.126,9.963-4.126c3.927,0,7.186,1.35,9.962,4.126c2.777,2.777,4.126,6.036,4.126,9.963 C154.869,39.328,153.52,42.587,150.743,45.363z"/><path fill="#15BCDC" d="M206.068,14.602c-3.116,0-6.021,0.865-8.634,2.569c-1.546,1.004-2.872,2.224-3.964,3.642 c-1.092-1.418-2.417-2.637-3.96-3.64c-2.615-1.706-5.529-2.571-8.661-2.571c-4.375,0-8.163,1.578-11.249,4.684 c-3.113,3.095-4.691,6.891-4.691,11.281v24.217h6.686V30.566c0-2.583,0.888-4.733,2.71-6.569c1.824-1.823,3.964-2.71,6.545-2.71 c2.583,0,4.733,0.889,6.564,2.705c1.827,1.841,2.715,3.991,2.715,6.574v24.217h6.686V30.566c0-2.583,0.888-4.733,2.71-6.569 c1.824-1.823,3.964-2.71,6.545-2.71c2.583,0,4.733,0.889,6.564,2.705c1.827,1.841,2.715,3.991,2.715,6.574v24.217h6.686V30.566 c0-4.391-1.579-8.187-4.683-11.273C214.255,16.18,210.459,14.602,206.068,14.602z"/><path fill="#15BCDC" d="M245.063,14.626c-5.701,0-10.646,2.054-14.695,6.104c-4.034,4.033-6.079,8.97-6.079,14.671 c0,5.7,2.044,10.644,6.082,14.698c4.049,4.032,8.992,6.076,14.692,6.076c3.692,0,7.184-0.937,10.388-2.79 c1.348-0.791,2.583-1.709,3.701-2.748v4.195h6.686V35.4c0-5.702-2.055-10.64-6.101-14.668 C255.701,16.681,250.765,14.626,245.063,14.626z M255.025,45.363c-2.777,2.776-6.036,4.126-9.963,4.126 c-3.928,0-7.187-1.35-9.963-4.126c-2.776-2.775-4.126-6.034-4.126-9.963c0-3.928,1.35-7.187,4.126-9.963s6.036-4.126,9.963-4.126 c3.927,0,7.186,1.35,9.963,4.126c2.776,2.777,4.126,6.036,4.126,9.963C259.151,39.328,257.802,42.587,255.025,45.363z"/><path fill="#15BCDC" d="M287.255,14.602c-4.956,0-9.251,1.782-12.767,5.298s-5.298,7.811-5.298,12.767v22.142h6.686V32.666 c0-3.172,1.094-5.808,3.35-8.063c2.233-2.248,4.859-3.341,8.029-3.341c1.183,0,2.362,0.188,3.508,0.562l2.618,0.851v-7.076 l-1.488-0.394C290.378,14.805,288.817,14.602,287.255,14.602z"/><polygon fill="#15BCDC" points="330.721,15.993 321.251,15.993 302.199,34.857 302.199,6.179 295.514,6.179 295.514,54.759  302.199,54.759 302.199,44.241 306.487,39.986 320.709,54.808 330.08,54.808 311.237,35.286 "/><path fill="#15BCDC" d="M361.863,20.112c-3.946-3.641-8.666-5.486-14.027-5.486c-5.701,0-10.646,2.054-14.695,6.104 c-4.034,4.033-6.079,8.97-6.079,14.671s2.045,10.638,6.079,14.671c4.049,4.05,8.993,6.104,14.695,6.104 c4.396,0,8.436-1.301,12.005-3.865c3.475-2.489,5.981-5.787,7.451-9.801l0.685-1.87h-7.085l-0.168,0.385 c-1.108,2.547-2.773,4.54-5.088,6.093c-2.388,1.597-4.939,2.373-7.8,2.373c-3.771,0-6.939-1.26-9.681-3.843 c-2.188-2.085-3.541-4.486-4.098-7.294h34.401l0.151-2.952c0-0.55-0.035-1.18-0.106-1.916 C368.021,28.211,365.784,23.711,361.863,20.112z M334.228,31.667c0.672-2.598,2.044-4.811,4.159-6.722 c2.704-2.445,5.795-3.634,9.449-3.634c3.64,0,6.732,1.189,9.446,3.631c2.104,1.911,3.475,4.126,4.153,6.725H334.228z"/><path fill="#15BCDC" d="M396.057,22.63v-6.686h-18.481V9.67h-6.71v30.662c0,4.328,1.57,8.083,4.663,11.155 c3.062,3.062,6.807,4.614,11.131,4.614c3.13,0,5.985-0.823,8.486-2.446l0.911-0.592v-8.991l-3.343,3.029 c-1.719,1.558-3.699,2.314-6.055,2.314c-2.532,0-4.633-0.87-6.423-2.661c-1.791-1.79-2.661-3.891-2.661-6.423V22.63H396.057z"/></svg>